<svg version="1.1" id="Layer_1" xmlns="http://www.w3.org/2000/svg" xmlns:xlink="http://www.w3.org/1999/xlink" x="0px" y="0px" viewBox="0 0 391.9 391.9" style="enable-background:new 0 0 391.9 391.9;" xml:space="preserve">
<path style="fill:#008DB3;" d="M391.9,188.449h-55.923l31.582-54.697l-12.99-7.5l-35.912,62.197h-86.755
	c-1.614-7.839-5.706-14.784-11.418-19.977l43.318-75.034h71.815v-15h-63.156l27.965-48.439l-12.99-7.5l-27.965,48.439L227.89,16.234
	l-12.99,7.5l35.911,62.205l-43.236,74.892c-3.781-1.301-7.831-2.017-12.048-2.017c-3.95,0-7.755,0.626-11.329,1.773l-43.1-74.653
	l35.907-62.194l-12.99-7.5l-31.577,54.693l-27.963-48.434l-12.99,7.5l27.963,48.435l-63.167-0.002l-0.001,15l71.828,0.003
	l43.035,74.541c-6.008,5.243-10.325,12.378-11.992,20.474H73.249L37.34,126.253l-12.99,7.5l31.58,54.697H0v15h55.925l-31.583,54.699
	l12.99,7.5l35.913-62.199h85.906c1.667,8.096,5.983,15.231,11.991,20.475l-43.034,74.538H56.285v15h63.165L91.486,361.9l12.99,7.5
	l27.96-48.43l31.577,54.696l12.99-7.5l-35.907-62.197l43.102-74.657c3.574,1.148,7.379,1.774,11.33,1.774
	c4.217,0,8.268-0.716,12.049-2.017l43.233,74.887l-35.913,62.204l12.99,7.5l31.583-54.703l27.966,48.442l12.99-7.5l-27.961-48.433
	l63.155,0.002l0.001-15l-71.816-0.003l-43.32-75.038c5.712-5.193,9.804-12.139,11.418-19.978h86.749l35.911,62.199l12.99-7.5
	l-31.581-54.699H391.9V188.449z M173.39,195.95c0-12.206,9.931-22.136,22.137-22.136s22.136,9.93,22.136,22.136
	c0,12.206-9.93,22.137-22.136,22.137S173.39,208.156,173.39,195.95z"/>
</svg>
